<svg width="176" height="24" viewBox="0 0 176 24" fill="none" xmlns="http://www.w3.org/2000/svg">
<path fill-rule="evenodd" clip-rule="evenodd" d="M93.7897 21.7288C88.4793 21.7288 84.2927 17.7951 84.2927 12.0351C84.2927 6.27512 88.4793 2.34146 93.7897 2.34146C96.768 2.34146 99.0158 3.66205 100.617 5.65697L99.2687 6.528C98.0886 4.89834 96.0375 3.80253 93.7897 3.80253C89.3784 3.80253 85.9786 7.14614 85.9786 12.0351C85.9786 16.8679 89.3784 20.2677 93.7897 20.2677C96.0375 20.2677 98.0886 19.1719 99.2687 17.5422L100.617 18.3852C98.9597 20.4363 96.768 21.7288 93.7897 21.7288ZM112.278 21.7288C106.771 21.7288 103.174 17.5141 103.174 12.0351C103.174 6.5561 106.771 2.34146 112.278 2.34146C117.757 2.34146 121.382 6.5561 121.382 12.0351C121.382 17.5141 117.757 21.7288 112.278 21.7288ZM112.278 20.2677C116.774 20.2677 119.696 16.7555 119.696 12.0351C119.696 7.25853 116.774 3.80253 112.278 3.80253C107.726 3.80253 104.86 7.25853 104.86 12.0351C104.86 16.7555 107.726 20.2677 112.278 20.2677ZM139.673 21.3916H137.819L135.964 16.7836H126.046L124.191 21.3916H122.337L130.007 2.65053H132.002L139.673 21.3916ZM135.43 15.3225L130.991 4.36449L126.58 15.3225H135.43ZM150.125 21.7288C144.815 21.7288 140.628 17.7951 140.628 12.0351C140.628 6.27512 144.815 2.34146 150.125 2.34146C153.104 2.34146 155.351 3.66205 156.953 5.65697L155.604 6.528C154.424 4.89834 152.373 3.80253 150.125 3.80253C145.714 3.80253 142.314 7.14614 142.314 12.0351C142.314 16.8679 145.714 20.2677 150.125 20.2677C152.373 20.2677 154.424 19.1719 155.604 17.5422L156.953 18.3852C155.295 20.4363 153.104 21.7288 150.125 21.7288ZM175.329 21.3916H173.699V12.4847H161.814V21.3916H160.212V2.65053H161.814V11.0236H173.699V2.65053H175.329V21.3916Z" fill="#2E3134" fill-opacity="0.8"/>
<path fill-rule="evenodd" clip-rule="evenodd" d="M3.69059 0.260162C4.23937 0.260162 4.68293 0.708503 4.68293 1.25886V3.94365C4.68293 4.49561 4.23937 4.94309 3.69059 4.94309H0.99074C0.442705 4.94309 0 4.49561 0 3.94365V1.25886C0 0.708503 0.442705 0.260162 0.99074 0.260162H3.69059Z" fill="#0096D6"/>
<path fill-rule="evenodd" clip-rule="evenodd" d="M3.89658 7.80487H1.0464C0.467919 7.80487 0 8.26727 0 8.83932V23.1545H3.89658C4.47418 23.1545 4.94309 22.6921 4.94309 22.1208V8.83932C4.94309 8.26727 4.47418 7.80487 3.89658 7.80487Z" fill="#0096D6"/>
<path fill-rule="evenodd" clip-rule="evenodd" d="M20.5391 0L13.3071 0.163942C8.86876 0.316259 7.10366 3.58141 7.10366 6.75638L7.02441 23.1545H11.0686C11.6514 23.1545 12.1231 22.6908 12.1231 22.1172L12.0759 15.6322C12.0759 15.0386 12.4978 14.5932 13.1 14.5932H16.9176C17.5013 14.5932 17.9729 14.1288 17.9729 13.5568V11.2071C17.9729 10.6343 17.5013 10.1706 16.9176 10.1706H12.0987V7.4204C12.0987 5.75882 12.9846 5.07329 14.9755 5.07329L20.5391 5.06003C21.121 5.06003 21.5935 4.59559 21.5935 4.02271V1.03732C21.5935 0.465317 21.121 0 20.5391 0Z" fill="#2E3134" fill-opacity="0.8"/>
<path fill-rule="evenodd" clip-rule="evenodd" d="M27.8316 0.260162H24.9817C24.4033 0.260162 23.9351 0.727374 23.9351 1.30537V23.4146H27.8316C28.41 23.4146 28.8781 22.9467 28.8781 22.3703V1.30537C28.8781 0.727374 28.41 0.260162 27.8316 0.260162Z" fill="#2E3134" fill-opacity="0.8"/>
<path fill-rule="evenodd" clip-rule="evenodd" d="M44.6905 6.75638C44.6905 3.58141 42.9228 0.316259 38.4819 0.163073L32.2766 0C31.6941 0 31.2195 0.464447 31.2195 1.03732V4.02347C31.2195 4.59559 31.6941 5.06003 32.2766 5.06003L36.811 5.07416C38.8039 5.07416 39.6908 5.75795 39.6908 7.4203L39.6082 23.1545H43.6908C44.2758 23.1545 44.7479 22.6908 44.7479 22.1179L44.6905 6.75638Z" fill="#2E3134" fill-opacity="0.8"/>
<path fill-rule="evenodd" clip-rule="evenodd" d="M52.0172 0C52.0172 0 45.4768 0.149089 44.6231 0.149089C43.8814 0.210492 43.7804 0.712564 44.2627 1.16173C45.9477 2.63361 46.1842 5.03795 46.1842 5.15382L52.0172 5.20325C52.6008 5.20325 53.0732 4.72254 53.0732 4.12853V1.07561C53.0732 0.48071 52.6008 0 52.0172 0Z" fill="#2E3134" fill-opacity="0.8"/>
<mask id="mask0" mask-type="alpha" maskUnits="userSpaceOnUse" x="50" y="20" width="4" height="4">
<path fill-rule="evenodd" clip-rule="evenodd" d="M50.7896 20.8882H53.3158V23.4146H50.7896V20.8882Z" fill="white"/>
</mask>
<g mask="url(#mask0)">
<path fill-rule="evenodd" clip-rule="evenodd" d="M52.0531 23.4147C51.3558 23.4147 50.7896 22.8483 50.7896 22.1519C50.7896 21.4476 51.3558 20.8882 52.0531 20.8882C52.7556 20.8882 53.3158 21.4476 53.3158 22.1519C53.3158 22.8483 52.7556 23.4147 52.0531 23.4147ZM52.0531 21.0788C51.4575 21.0788 50.9809 21.5562 50.9809 22.1519C50.9809 22.7405 51.4575 23.2224 52.0531 23.2224C52.6427 23.2224 53.1254 22.7405 53.1254 22.1519C53.1254 21.5562 52.6427 21.0788 52.0531 21.0788ZM52.3979 22.8785L52.0229 22.3053H51.773V22.8785H51.5704V21.4295H52.1599C52.4047 21.4295 52.6306 21.6027 52.6306 21.8709C52.6306 22.1932 52.3444 22.3001 52.2608 22.3001L52.6479 22.8785H52.3979ZM52.1599 21.6088H51.773V22.1209H52.1599C52.285 22.1209 52.4221 22.02 52.4221 21.8709C52.4221 21.7113 52.285 21.6088 52.1599 21.6088Z" fill="#2E3134" fill-opacity="0.8"/>
</g>
<path fill-rule="evenodd" clip-rule="evenodd" d="M74.4885 10.611C74.4885 10.611 71.0817 7.3359 71.0017 7.25802C70.5036 6.84168 70.1226 7.01572 70.0733 7.51221C70.0676 7.56619 70.0685 7.77831 70.0668 7.82439C70.0644 7.92282 70.0587 8.02136 70.0516 8.11903C69.9837 9.02699 69.7133 9.92868 69.2773 10.731C68.6055 11.9686 67.3818 12.9163 66.375 13.8838C63.0675 17.0621 56.9756 22.8943 56.9756 22.8943H63.4695C63.8385 22.8943 64.1921 22.7513 64.4545 22.4955L74.4885 12.6939C75.0729 12.1186 75.0729 11.1861 74.4885 10.611Z" fill="#0096D6"/>
<path fill-rule="evenodd" clip-rule="evenodd" d="M67.2068 3.35602C67.0983 3.22652 64.7605 0.855859 64.7605 0.855859C64.6717 0.770114 64.583 0.692414 64.4911 0.624303C64.1758 0.38889 63.8325 0.260162 63.4063 0.260162H59.5139H56.9756L61.4838 4.61057L62.7321 5.81011L67.468 10.3629C67.5385 10.4309 67.6567 10.4179 67.7085 10.3345C68.9633 8.31755 69.2145 5.75909 67.2068 3.35602Z" fill="#0096D6"/>
</svg>
